<?xml version="1.0" encoding="iso-8859-1"?>
<!-- Generator: Adobe Illustrator 19.0.0, SVG Export Plug-In . SVG Version: 6.00 Build 0)  -->
<svg version="1.1" id="Capa_1" xmlns="http://www.w3.org/2000/svg" xmlns:xlink="http://www.w3.org/1999/xlink" x="0px" y="0px"
	 viewBox="0 0 400 400" style="enable-background:new 0 0 400 400;" xml:space="preserve">
<g>
	<g>
		<path style="fill:#5D505B;" d="M400,318.644c0,44.93-35.98,81.356-80.367,81.356H80.365C35.98,400,0,363.574,0,318.644V81.356
			C0,36.423,35.98,0,80.365,0h239.268C364.02,0,400,36.423,400,81.356V318.644z"/>
		<path style="fill:#534551;" d="M399.881,318.644v-99.779L274.132,110.937l40.981,104.228l-33.691,78.465L200,331.66l-70.34-11.688
			L219.823,400h99.69C363.898,400,399.881,363.574,399.881,318.644z"/>
		<g>
			<g>
				<path style="fill:#7996B1;" d="M196.734,293.63c-44.603,0-80.889-36.733-80.889-81.885c0-32.982,19.39-62.597,49.4-75.445
					c5.889-2.523,12.686,0.267,15.178,6.229c2.493,5.966-0.265,12.844-6.155,15.367c-21.421,9.172-35.26,30.309-35.26,53.849
					c0,32.222,25.896,58.437,57.726,58.437c31.828,0,57.727-26.215,57.727-58.437c0-27.462-18.441-50.891-44.844-56.978
					c-6.236-1.438-10.14-7.721-8.721-14.035c1.421-6.314,7.625-10.261,13.864-8.829c37.013,8.535,62.863,41.365,62.863,79.841
					C277.624,256.896,241.337,293.63,196.734,293.63z"/>
			</g>
			<g>
				<path style="fill:#7996B1;" d="M196.734,339.55c-69.616,0-126.25-57.334-126.25-127.805c0-54.809,34.426-103.458,85.666-121.057
					c6.054-2.08,12.634,1.206,14.689,7.336c2.056,6.131-1.188,12.788-7.247,14.87c-41.837,14.368-69.945,54.095-69.945,98.851
					c0,57.542,46.244,104.356,103.087,104.356c56.842,0,103.086-46.814,103.086-104.356c0-51.639-38.014-96.053-88.424-103.31
					c-6.332-0.912-10.734-6.849-9.834-13.258c0.901-6.412,6.766-10.864,13.096-9.957c61.756,8.893,108.325,63.285,108.325,126.525
					C322.983,282.216,266.349,339.55,196.734,339.55z"/>
			</g>
			<g>
				<path style="fill:#C3E05E;" d="M196.729,223.471c-5.003,0-9.616-3.306-11.103-8.41l-44.22-151.835
					c-1.81-6.21,1.699-12.728,7.833-14.56c6.13-1.836,12.575,1.72,14.384,7.931l44.22,151.832
					c1.808,6.212-1.698,12.729-7.834,14.562C198.917,223.317,197.814,223.471,196.729,223.471z"/>
			</g>
			<g>
				<ellipse style="fill:#FFFFFF;" cx="196.735" cy="211.745" rx="28.427" ry="28.777"/>
			</g>
			<g>
				<ellipse style="fill:#D66D5D;" cx="310.961" cy="201.665" rx="23.698" ry="23.989"/>
			</g>
			<g>
				<ellipse style="fill:#D66D5D;" cx="201.464" cy="327.826" rx="23.698" ry="23.987"/>
			</g>
			<g>
				<ellipse style="fill:#D66D5D;" cx="82.065" cy="222.703" rx="23.698" ry="23.99"/>
			</g>
		</g>
		<path style="fill:none;" d="M115.845,211.745c0-32.14,18.444-61.035,47.153-74.381l-6.346-21.789
			c-35.042,14.946-59.051,48.247-62.546,86.492c6.969,4.176,11.658,11.843,11.658,20.636c0,7.171-3.126,13.589-8.053,17.985
			c11.057,38.698,43.673,68.219,83.78,74.265c3.354-5.323,8.729-9.179,15.024-10.54v-10.789
			C152.013,293.503,115.845,256.821,115.845,211.745z"/>
		<path style="fill:none;" d="M168.307,211.745c0-8.762,3.88-16.596,9.982-21.873l-8.653-29.718
			c-18.754,10.088-30.627,29.799-30.627,51.591c0,32.147,25.776,58.31,57.506,58.431v-29.664
			C180.917,240.389,168.307,227.563,168.307,211.745z"/>
		<path style="opacity:0.28;fill:#534551;enable-background:new    ;" d="M196.734,240.522c15.698,0,28.428-12.884,28.428-28.777
			c0-14.593-10.743-26.621-24.652-28.494l-3.995-13.723v70.983C196.588,240.512,196.661,240.522,196.734,240.522z"/>
		<path style="opacity:0.28;fill:#534551;enable-background:new    ;" d="M196.734,293.63c44.603,0,80.89-36.733,80.89-81.885
			c0-38.476-25.851-71.306-62.863-79.841c-6.239-1.432-12.443,2.515-13.864,8.829c-1.419,6.313,2.484,12.596,8.721,14.035
			c26.402,6.087,44.844,29.516,44.844,56.978c0,32.222-25.898,58.437-57.727,58.437c-0.074,0-0.146-0.006-0.22-0.006v23.448
			C196.588,293.624,196.661,293.63,196.734,293.63z"/>
		<path style="opacity:0.28;fill:#534551;enable-background:new    ;" d="M223.49,336.634
			c53.401-11.716,94.294-57.719,99.003-114.021c7.255-4.103,12.166-11.94,12.166-20.948c0-10.5-6.675-19.401-15.955-22.652
			c-12.817-48.431-53.289-86.484-104.046-93.792c-6.33-0.908-12.194,3.545-13.096,9.957c-0.9,6.41,3.502,12.347,9.834,13.258
			c40.796,5.873,73.464,36.084,84.444,74.764c-5.239,4.401-8.577,11.039-8.577,18.466c0,8.941,4.843,16.725,12.01,20.853
			c-4.53,44.502-36.808,80.773-78.969,90.799c-4.329-5.75-11.147-9.478-18.841-9.478c-1.705,0-3.35,0.227-4.949,0.574v46.871
			c1.596,0.346,3.251,0.531,4.949,0.531C211.477,351.815,220.019,345.521,223.49,336.634z"/>
	</g>
</g>
<g>
</g>
<g>
</g>
<g>
</g>
<g>
</g>
<g>
</g>
<g>
</g>
<g>
</g>
<g>
</g>
<g>
</g>
<g>
</g>
<g>
</g>
<g>
</g>
<g>
</g>
<g>
</g>
<g>
</g>
</svg>
